<?xml version="1.0" encoding="UTF-8"?>
<svg width="256" height="256" viewBox="0 0 256 256" fill="none" xmlns="http://www.w3.org/2000/svg">
  <!-- 背景 -->
  <rect width="256" height="256" fill="white"/>

  <!-- 棋盘格透明背景 - 上半部分，进一步增大面积 -->
  <g>
    <rect x="0" y="0" width="256" height="192" fill="#F0F0F0"/>
    <!-- 棋盘格 -->
    <g>
      <!-- 棋盘格图案 - 8x8 格子 -->
      <rect x="0" y="0" width="32" height="32" fill="#CCCCCC"/>
      <rect x="64" y="0" width="32" height="32" fill="#CCCCCC"/>
      <rect x="128" y="0" width="32" height="32" fill="#CCCCCC"/>
      <rect x="192" y="0" width="32" height="32" fill="#CCCCCC"/>

      <rect x="32" y="32" width="32" height="32" fill="#CCCCCC"/>
      <rect x="96" y="32" width="32" height="32" fill="#CCCCCC"/>
      <rect x="160" y="32" width="32" height="32" fill="#CCCCCC"/>
      <rect x="224" y="32" width="32" height="32" fill="#CCCCCC"/>

      <rect x="0" y="64" width="32" height="32" fill="#CCCCCC"/>
      <rect x="64" y="64" width="32" height="32" fill="#CCCCCC"/>
      <rect x="128" y="64" width="32" height="32" fill="#CCCCCC"/>
      <rect x="192" y="64" width="32" height="32" fill="#CCCCCC"/>

      <rect x="32" y="96" width="32" height="32" fill="#CCCCCC"/>
      <rect x="96" y="96" width="32" height="32" fill="#CCCCCC"/>
      <rect x="160" y="96" width="32" height="32" fill="#CCCCCC"/>
      <rect x="224" y="96" width="32" height="32" fill="#CCCCCC"/>

      <!-- 增加更多棋盘格 -->
      <rect x="0" y="128" width="32" height="32" fill="#CCCCCC"/>
      <rect x="64" y="128" width="32" height="32" fill="#CCCCCC"/>
      <rect x="128" y="128" width="32" height="32" fill="#CCCCCC"/>
      <rect x="192" y="128" width="32" height="32" fill="#CCCCCC"/>

      <!-- 再增加一行棋盘格 -->
      <rect x="32" y="160" width="32" height="32" fill="#CCCCCC"/>
      <rect x="96" y="160" width="32" height="32" fill="#CCCCCC"/>
      <rect x="160" y="160" width="32" height="32" fill="#CCCCCC"/>
      <rect x="224" y="160" width="32" height="32" fill="#CCCCCC"/>
    </g>
  </g>

  <!-- 山峰剪影 - 下半部分，45度角线条，左边大右边小，往下移动 -->
  <path d="M0 192L96 96L160 160L208 112L256 160V256H0V192Z" fill="black"/>

  <!-- 边框 -->
  <rect x="0" y="0" width="256" height="256" stroke="black" stroke-width="2" fill="none"/>
</svg>